<svg xmlns="http://www.w3.org/2000/svg" width="536" height="415" fill="none"><g fill="#00B068" filter="url(#a)"><rect width="15" height="15" x="431.1" y="210.2" rx="1.5" transform="rotate(-180 431 210)"/><rect width="15" height="15" x="369" y="40" rx="1.5" transform="rotate(-180 369 40)"/><rect width="14" height="14" x="326" y="341" rx="1.5" transform="rotate(-180 326 341)"/><rect width="22.6" height="22.6" x="495.5" y="256.2" rx="1.5" transform="rotate(-180 495 256)"/><rect width="7.5" height="7.5" x="319.3" y="116.8" rx="1.5" transform="rotate(-180 319 117)"/><rect width="7.5" height="7.5" x="528" y="146.8" rx="1.5" transform="rotate(-180 528 147)"/><rect width="7.5" height="7.5" x="152.5" y="320.5" rx="1.5" transform="rotate(-180 153 321)"/><rect width="7.5" height="7.5" x="15" y="407.4" rx="1.5" transform="rotate(-180 15 407)"/><rect width="15" height="15" x="282" y="225" rx="1.5" transform="rotate(-180 282 225)"/><rect width="7.5" height="7.5" x="160.5" y="138.5" rx="1.5" transform="rotate(-180 161 139)"/></g><defs><filter id="a" width="540.8" height="422.8" x="-3.4" y="-7.4" color-interpolation-filters="sRGB" filterUnits="userSpaceOnUse"><feFlood flood-opacity="0" result="BackgroundImageFix"/><feBlend in="SourceGraphic" in2="BackgroundImageFix" result="shape"/><feGaussianBlur result="effect1_foregroundBlur_2051_1487" stdDeviation="3.7"/></filter></defs></svg>