<svg xmlns="http://www.w3.org/2000/svg" width="536" height="422" fill="none"><g fill="#00B068" filter="url(#a)"><rect width="15" height="15" rx="1.5" transform="matrix(1 0 0 -1 105 217)"/><rect width="15" height="15" rx="1.5" transform="matrix(1 0 0 -1 236 23)"/><rect width="22.6" height="22.6" rx="1.5" transform="matrix(1 0 0 -1 209 390)"/><rect width="22.6" height="22.6" rx="1.5" transform="matrix(1 0 0 -1 41 263)"/><rect width="7.5" height="7.5" rx="1.5" transform="matrix(1 0 0 -1 217 124)"/><rect width="7.5" height="7.5" rx="1.5" transform="matrix(1 0 0 -1 8 154)"/><rect width="7.5" height="7.5" rx="1.5" transform="matrix(1 0 0 -1 354 369)"/><rect width="7.5" height="7.5" rx="1.5" transform="matrix(1 0 0 -1 521 414)"/><rect width="15" height="15" rx="1.5" transform="matrix(1 0 0 -1 263 232)"/><rect width="7.5" height="7.5" rx="1.5" transform="matrix(1 0 0 -1 323 90)"/></g><defs><filter id="a" width="540.8" height="422.8" x="-1.4" y="-.4" color-interpolation-filters="sRGB" filterUnits="userSpaceOnUse"><feFlood flood-opacity="0" result="BackgroundImageFix"/><feBlend in="SourceGraphic" in2="BackgroundImageFix" result="shape"/><feGaussianBlur result="effect1_foregroundBlur_2051_1395" stdDeviation="3.7"/></filter></defs></svg>