<svg xmlns="http://www.w3.org/2000/svg" width="343" height="269" fill="none"><g fill="#00B068" filter="url(#a)"><rect width="9.6" height="9.6" x="275.8" y="138.2" rx=".9" transform="rotate(-180 275.8 138.2)"/><rect width="9.6" height="9.6" x="192.1" y="14.4" rx=".9" transform="rotate(-180 192.1 14.4)"/><rect width="14.4" height="14.4" x="209.1" y="249" rx=".9" transform="rotate(-180 209.1 249)"/><rect width="14.4" height="14.4" x="316.9" y="167.6" rx=".9" transform="rotate(-180 317 167.6)"/><rect width="4.8" height="4.8" x="204.4" y="78.6" rx=".9" transform="rotate(-180 204.4 78.6)"/><rect width="4.8" height="4.8" x="337.7" y="97.8" rx=".9" transform="rotate(-180 337.7 97.8)"/><rect width="4.8" height="4.8" x="116.9" y="234.9" rx=".9" transform="rotate(-180 116.9 235)"/><rect width="4.8" height="4.8" x="10" y="264.3" rx=".9" transform="rotate(-180 10 264.3)"/><rect width="9.6" height="9.6" x="175.1" y="147.7" rx=".9" transform="rotate(-180 175.1 147.7)"/><rect width="4.8" height="4.8" x="136.3" y="56.8" rx=".9" transform="rotate(-180 136.3 56.8)"/></g><defs><filter id="a" width="345.5" height="269.7" x="-1.7" y="-.7" color-interpolation-filters="sRGB" filterUnits="userSpaceOnUse"><feFlood flood-opacity="0" result="BackgroundImageFix"/><feBlend in="SourceGraphic" in2="BackgroundImageFix" result="shape"/><feGaussianBlur result="effect1_foregroundBlur_2081_890" stdDeviation="2.4"/></filter></defs></svg>